<?xml version="1.0" encoding="UTF-8" standalone="no"?>
<!-- Created with Inkscape (http://www.inkscape.org/) -->

<svg
   xmlns:dc="http://purl.org/dc/elements/1.1/"
   xmlns:cc="http://creativecommons.org/ns#"
   xmlns:rdf="http://www.w3.org/1999/02/22-rdf-syntax-ns#"
   xmlns:svg="http://www.w3.org/2000/svg"
   xmlns="http://www.w3.org/2000/svg"
   version="1.0"
   width="0.40000001in"
   height="0.33000001in"
   viewBox="0 0 40 33"
   id="svg2"
   xml:space="preserve"><metadata
     id="metadata49"><rdf:RDF><cc:Work
         rdf:about=""><dc:format>image/svg+xml</dc:format><dc:type
           rdf:resource="http://purl.org/dc/dcmitype/StillImage" /><dc:title></dc:title></cc:Work></rdf:RDF></metadata><defs
     id="defs79" /><rect
     width="3"
     height="4.3400002"
     x="3.5"
     y="28.66"
     id="connector0pin"
     style="fill:#8c8c8c" /><rect
     width="3"
     height="4.3400002"
     x="13.5"
     y="28.66"
     id="connector1pin"
     style="fill:#8c8c8c" /><rect
     width="3"
     height="4.3400002"
     x="23.5"
     y="28.66"
     id="connector2pin"
     style="fill:#8c8c8c" /><rect
     width="3"
     height="4.3400002"
     x="33.5"
     y="28.66"
     id="connector3pin"
     style="fill:#8c8c8c" /><rect
     width="3"
     height="4.3400002"
     x="33.5"
     y="0"
     id="connector4pin"
     style="fill:#8c8c8c" /><rect
     width="3"
     height="4.3400002"
     x="23.5"
     y="0"
     id="connector5pin"
     style="fill:#8c8c8c" /><rect
     width="3"
     height="4.3400002"
     x="13.5"
     y="0"
     id="connector6pin"
     style="fill:#8c8c8c" /><rect
     width="3"
     height="4.3400002"
     x="3.5"
     y="0"
     id="connector7pin"
     style="fill:#8c8c8c" /><rect
     width="3"
     height="3"
     x="3.5"
     y="30"
     id="connector0terminal"
     style="fill:#8c8c8c" /><rect
     width="3"
     height="3"
     x="13.5"
     y="30"
     id="connector1terminal"
     style="fill:#8c8c8c" /><rect
     width="3"
     height="3"
     x="23.5"
     y="30"
     id="connector2terminal"
     style="fill:#8c8c8c" /><rect
     width="3"
     height="3"
     x="33.5"
     y="30"
     id="connector3terminal"
     style="fill:#8c8c8c" /><rect
     width="3"
     height="3"
     x="33.5"
     y="0"
     id="connector4terminal"
     style="fill:#8c8c8c" /><rect
     width="3"
     height="3"
     x="23.5"
     y="0"
     id="connector5terminal"
     style="fill:#8c8c8c" /><rect
     width="3"
     height="3"
     x="13.5"
     y="0"
     id="connector6terminal"
     style="fill:#8c8c8c" /><rect
     width="3"
     height="3"
     x="3.5"
     y="0"
     id="connector7terminal"
     style="fill:#8c8c8c" /><g
     id="breadboard"><rect
       width="3"
       height="6.6799998"
       x="3.5"
       y="26.32"
       id="rect20"
       style="fill:#8c8c8c" /><rect
       width="3"
       height="6.6799998"
       x="13.5"
       y="26.32"
       id="rect22"
       style="fill:#8c8c8c" /><rect
       width="3"
       height="6.6799998"
       x="23.5"
       y="26.32"
       id="rect24"
       style="fill:#8c8c8c" /><rect
       width="3"
       height="6.6799998"
       x="33.5"
       y="26.32"
       id="rect26"
       style="fill:#8c8c8c" /><rect
       width="3"
       height="6.6799998"
       x="3.5"
       y="0"
       id="rect28"
       style="fill:#8c8c8c" /><rect
       width="3"
       height="6.6799998"
       x="13.5"
       y="0"
       id="rect30"
       style="fill:#8c8c8c" /><rect
       width="3"
       height="6.6799998"
       x="23.5"
       y="0"
       id="rect32"
       style="fill:#8c8c8c" /><rect
       width="3"
       height="6.6799998"
       x="33.5"
       y="0"
       id="rect34"
       style="fill:#8c8c8c" /><polygon
       points="40,3 39.25,11.5 0,11.5 0,3 0,3 "
       id="polygon36"
       style="fill:#3d3d3d" /><polygon
       points="39.25,21.5 40,30 0,30 0,21.5 0,21.5 "
       id="polygon38" /><polygon
       points="8.5,3.26 6.5,2.34 3.5,2.34 3.5,4.34 8.5,4.34 8.5,4.34 "
       id="polygon40"
       style="fill:#8c8c8c" /><polygon
       points="18.5,3.26 16.5,2.34 13.5,2.34 11.5,3.26 11.5,4.34 18.5,4.34 18.5,4.34 "
       id="polygon42"
       style="fill:#8c8c8c" /><polygon
       points="36.5,2.34 33.5,2.34 31.5,3.26 31.5,4.34 36.5,4.34 36.5,4.34 "
       id="polygon44"
       style="fill:#8c8c8c" /><polygon
       points="28.5,3.26 26.5,2.34 23.5,2.34 21.5,3.26 21.5,4.34 28.5,4.34 28.5,4.34 "
       id="polygon46"
       style="fill:#8c8c8c" /><polygon
       points="3.5,30.66 6.5,30.66 8.5,29.74 8.5,28.66 3.5,28.66 3.5,28.66 "
       id="polygon48"
       style="fill:#8c8c8c" /><polygon
       points="31.5,29.74 33.5,30.66 36.5,30.66 36.5,28.66 31.5,28.66 31.5,28.66 "
       id="polygon50"
       style="fill:#8c8c8c" /><polygon
       points="11.5,29.74 13.5,30.66 16.5,30.66 18.5,29.74 18.5,28.66 11.5,28.66 11.5,28.66 "
       id="polygon52"
       style="fill:#8c8c8c" /><polygon
       points="21.5,29.74 23.5,30.66 26.5,30.66 28.5,29.74 28.5,28.66 21.5,28.66 21.5,28.66 "
       id="polygon54"
       style="fill:#8c8c8c" /><polygon
       points="39.25,5.46 37.853,5.46 37.853,27.53 39.25,27.54 40,30 40,3 40,3 "
       id="polygon56"
       style="fill:#141414" /><polygon
       points="0.75,5.46 0.75,11.5 5,11.5 5,21.5 0.75,21.5 0.75,27.54 0,30 0,3 0,3 "
       id="polygon58"
       style="fill:#1f1f1f" /><polygon
       points="0.75,11.46 0.56,13.58 0.56,16.49 5,16.49 5,11.5 5,11.5 "
       id="polygon60"
       style="fill:#1c1c1c" /><polygon
       points="5,21.55 5,16.49 0.56,16.49 0.56,19.42 0.75,21.55 0.75,21.55 "
       id="polygon62"
       style="fill:#383838" /><path
       d="m 0.75,5.46 0,5.99 c 2.38,0.45 4.19,2.53 4.19,5.04 0,2.51 -1.8,4.6 -4.19,5.05 l 0,5.99 38.5,0 0,-22.07 -38.5,0 z"
       id="path64"
       style="fill:#303030" /><path
       d="m 0.56,13.58 0,5.83 c 1.47,-0.17 2.62,-1.4 2.62,-2.92 0,-1.52 -1.14,-2.74 -2.62,-2.91 z"
       id="path66"
       style="fill:#262626" /><circle
       cx="6.5"
       cy="23.469999"
       r="2.0599999"
       id="circle68"
       style="fill:#212121" /><text
       x="9.4385595"
       y="8.4317799"
       transform="scale(1.1111111,1.1111111)"
       id="text3026"
       xml:space="preserve"
       style="font-size:40px;font-style:normal;font-weight:normal;line-height:125%;letter-spacing:0px;word-spacing:0px;fill:#000000;fill-opacity:1;stroke:none;font-family:Sans"><tspan
         x="9.4385595"
         y="8.4317799"
         id="tspan3028" /></text>
<text
       x="6.1676073"
       y="14.946801"
       id="text3030"
       xml:space="preserve"
       style="font-size:44.44444275px;font-style:normal;font-weight:normal;line-height:100%;letter-spacing:0px;word-spacing:0px;fill:#000000;fill-opacity:1;stroke:none;font-family:Sans"><tspan
         x="6.1676073"
         y="14.946801"
         id="tspan3032"
         style="font-size:8.88888836px;font-style:normal;font-variant:normal;font-weight:bold;font-stretch:normal;line-height:100%;fill:#f9f9f9;font-family:OCRA;-inkscape-font-specification:OCRA Bold">MCP</tspan><tspan
         x="6.1676073"
         y="23.83569"
         id="tspan3034"
         style="font-size:8.88888836px;font-style:normal;font-variant:normal;font-weight:bold;font-stretch:normal;line-height:100%;fill:#f9f9f9;font-family:OCRA;-inkscape-font-specification:OCRA Bold"> 2562</tspan></text>
</g></svg>